<?xml version="1.0" standalone="no"?>
<!DOCTYPE svg PUBLIC "-//W3C//DTD SVG 20010904//EN"
 "http://www.w3.org/TR/2001/REC-SVG-20010904/DTD/svg10.dtd">
<svg version="1.0" xmlns="http://www.w3.org/2000/svg"
 width="1024.000000pt" height="1024.000000pt" viewBox="0 0 1024.000000 1024.000000"
 preserveAspectRatio="xMidYMid meet">

<g transform="translate(0.000000,1024.000000) scale(0.100000,-0.100000)"
fill="#000000" stroke="none">
<path d="M3817 9086 c-36 -37 -34 -65 43 -495 37 -211 25 -412 -33 -531 -29
-60 -135 -165 -287 -285 -446 -351 -723 -800 -835 -1350 -75 -367 -56 -735 55
-1120 98 -336 108 -423 71 -614 -31 -158 -85 -279 -218 -484 -84 -130 -93
-149 -93 -195 0 -61 13 -66 143 -59 186 9 401 74 561 169 76 45 198 156 252
230 l36 48 41 -26 c65 -40 254 -130 332 -158 444 -158 875 -98 1109 155 116
125 166 253 173 450 7 156 -10 244 -71 374 -121 256 -388 399 -687 365 -172
-20 -305 -85 -417 -205 -76 -81 -130 -179 -157 -283 -18 -71 -24 -223 -12
-295 8 -48 8 -48 -14 -37 -42 23 -235 227 -298 315 -101 143 -146 262 -157
415 -19 251 139 472 382 535 32 8 73 15 91 15 30 0 33 -3 33 -30 0 -60 22
-132 52 -165 78 -89 267 -62 458 66 118 79 232 203 366 396 127 183 232 295
355 376 157 104 292 145 499 154 258 11 517 -31 1030 -169 63 -17 121 -31 128
-31 21 -1 5 -45 -34 -99 -104 -141 -299 -253 -554 -318 -279 -71 -781 -96
-1305 -64 l-100 6 -42 -68 -42 -69 92 -8 c186 -15 781 -11 942 7 385 43 587
92 788 192 254 126 429 318 467 510 22 113 -12 208 -151 415 -201 301 -391
503 -634 671 -265 184 -620 314 -993 363 -153 20 -247 41 -301 67 -67 32 -148
113 -266 267 -202 264 -331 395 -495 503 -142 94 -265 132 -303 94z m1963
-1638 c124 -29 262 -126 301 -211 36 -81 20 -119 -70 -160 -39 -18 -65 -22
-171 -22 -187 0 -294 35 -396 127 -61 56 -98 127 -89 169 21 94 234 143 425
97z m-1880 -854 c76 -23 150 -62 150 -78 0 -8 -18 -41 -40 -73 -22 -32 -53
-89 -69 -128 l-28 -70 -114 -6 c-132 -7 -225 -29 -326 -74 -189 -87 -329 -235
-411 -437 -15 -37 -30 -68 -34 -68 -12 0 -21 151 -14 237 9 113 38 221 85 318
104 217 266 347 492 395 63 13 244 4 309 -16z m733 -1408 c111 -54 178 -164
185 -302 9 -165 -58 -290 -193 -362 -43 -23 -61 -27 -135 -26 -98 1 -140 16
-201 71 -78 71 -119 172 -119 299 0 130 52 240 144 302 65 43 98 52 187 48 59
-2 90 -9 132 -30z"/>
<path d="M7569 5545 c-55 -15 -125 -61 -164 -107 -46 -55 -52 -70 -230 -673
-18 -60 -65 -216 -104 -345 -39 -129 -71 -238 -71 -242 0 -5 78 -8 174 -8
l173 0 23 78 c12 42 31 107 42 145 l20 67 241 -2 240 -3 41 -142 41 -143 183
0 c170 0 183 1 178 18 -3 9 -50 163 -105 342 -54 179 -110 361 -124 405 -14
44 -51 159 -81 255 -59 187 -89 245 -154 301 -74 63 -209 86 -323 54z m132
-346 c14 -26 17 -39 74 -247 25 -90 45 -170 45 -178 0 -12 -28 -14 -159 -14
l-160 0 14 48 c8 26 34 118 58 205 25 86 52 168 61 182 20 31 51 32 67 4z"/>
<path d="M5890 4860 l0 -690 170 0 170 0 0 267 0 266 28 -39 c15 -21 95 -141
177 -266 l150 -228 198 0 199 0 -23 38 c-12 20 -90 135 -173 255 -83 120 -177
255 -209 302 l-58 84 169 248 c93 136 199 293 236 348 l68 100 -183 3 c-138 2
-186 -1 -195 -10 -7 -7 -90 -137 -184 -288 -95 -151 -178 -282 -186 -290 -12
-12 -14 28 -14 288 l0 302 -170 0 -170 0 0 -690z"/>
<path d="M5571 5164 c-162 -43 -275 -165 -310 -332 -7 -32 -11 -174 -11 -357
l0 -305 160 0 160 0 0 280 c0 307 2 322 59 375 36 35 81 53 134 54 l37 1 0
150 0 150 -87 -1 c-49 0 -112 -7 -142 -15z"/>
<path d="M8353 4778 c2 -7 19 -66 37 -130 l32 -118 209 0 209 0 0 130 0 130
-246 0 c-193 0 -245 -3 -241 -12z"/>
<path d="M6662 4043 c-167 -82 -81 -323 103 -289 46 9 101 65 115 117 34 123
-101 230 -218 172z"/>
<path d="M2039 3682 c-178 -59 -299 -234 -299 -430 0 -212 110 -368 310 -438
128 -45 346 -33 488 27 l42 18 0 119 0 119 -82 -33 c-188 -75 -345 -69 -430
16 -21 21 -38 47 -38 59 0 21 1 21 310 21 l310 0 0 68 c0 194 -96 356 -255
432 -65 31 -78 34 -185 37 -91 2 -127 -1 -171 -15z m240 -222 c39 -19 81 -73
81 -103 0 -13 -23 -16 -157 -19 -87 -2 -162 0 -166 3 -19 15 61 117 103 132
34 12 103 6 139 -13z"/>
<path d="M3013 3681 c-253 -94 -361 -414 -226 -673 43 -83 103 -140 191 -181
57 -27 81 -33 157 -35 107 -4 177 17 253 77 l47 38 -3 -49 -4 -48 136 0 136 0
0 440 0 441 -132 -3 -133 -3 -3 -48 -3 -48 -37 32 c-62 55 -115 73 -227 76
-80 3 -111 -1 -152 -16z m311 -266 c87 -42 122 -164 75 -263 -57 -116 -230
-140 -312 -43 -80 96 -49 251 63 309 53 27 112 26 174 -3z"/>
<path d="M4040 3686 c-138 -40 -216 -124 -227 -246 -7 -79 17 -148 67 -194 51
-46 95 -67 205 -101 113 -34 145 -51 145 -74 0 -34 -28 -46 -104 -45 -97 2
-163 22 -298 92 -5 2 -8 -55 -8 -126 l0 -131 53 -20 c116 -43 172 -54 267 -55
192 0 317 59 371 178 26 58 25 157 -2 213 -40 84 -107 122 -317 183 -40 11
-75 27 -78 35 -9 23 14 52 46 59 57 11 197 -17 293 -59 16 -7 17 1 15 121 l-3
129 -70 24 c-85 29 -281 39 -355 17z"/>
<path d="M4920 3686 c-156 -44 -277 -174 -311 -334 -6 -32 -9 -95 -7 -144 5
-77 10 -97 47 -172 48 -95 99 -150 182 -191 106 -54 192 -70 302 -55 159 22
283 107 352 244 35 68 38 84 43 174 5 107 -9 175 -54 264 -50 99 -171 191
-285 217 -60 14 -214 12 -269 -3z m226 -262 c46 -22 91 -75 104 -125 24 -87
-29 -203 -106 -235 -40 -17 -112 -18 -151 -3 -125 47 -151 234 -46 332 50 47
137 60 199 31z"/>
<path d="M6041 3684 c-24 -9 -61 -34 -82 -55 -22 -22 -41 -39 -44 -39 -3 0 -5
22 -5 49 l0 50 -142 -2 -143 -2 0 -437 0 -438 142 0 142 0 3 269 c3 254 4 271
24 297 70 95 196 96 246 3 16 -30 18 -61 18 -301 l0 -268 145 0 145 0 0 288
c0 302 -8 369 -49 450 -27 52 -77 101 -131 125 -60 28 -206 33 -269 11z"/>
<path d="M7441 3689 c-43 -13 -105 -53 -124 -79 -19 -27 -27 -16 -27 37 l0 43
-135 0 -135 0 0 -440 0 -440 140 0 140 0 0 269 c0 262 1 269 23 302 62 93 189
87 239 -12 16 -30 18 -66 18 -296 l0 -263 141 0 140 0 -3 323 c-4 309 -5 324
-27 378 -51 126 -131 181 -271 185 -47 2 -100 -1 -119 -7z"/>
<path d="M8267 3690 c-123 -31 -223 -118 -274 -239 -25 -60 -28 -77 -28 -191
0 -107 3 -134 23 -187 38 -97 103 -171 196 -218 77 -39 81 -40 180 -40 115 1
167 19 238 83 l41 37 -5 -53 c-12 -121 -121 -182 -298 -169 -75 6 -203 43
-247 72 l-23 15 0 -129 0 -130 98 -31 c95 -31 100 -32 252 -28 141 4 161 7
227 33 129 51 198 118 245 234 23 55 23 64 26 499 l3 442 -136 0 -135 0 0 -54
0 -54 -32 31 c-57 53 -132 81 -228 84 -47 1 -102 -2 -123 -7z m278 -263 c56
-32 85 -87 85 -162 0 -74 -22 -119 -77 -159 -73 -51 -169 -45 -238 16 -40 35
-58 83 -58 156 0 43 6 61 29 94 40 56 85 78 159 78 44 0 71 -6 100 -23z"/>
<path d="M1430 3674 c-73 -20 -127 -53 -179 -109 -88 -96 -101 -156 -101 -487
l0 -268 145 0 145 0 0 218 c0 227 6 279 37 321 30 40 99 71 160 71 l53 0 0
135 0 135 -102 -1 c-57 0 -128 -7 -158 -15z"/>
<path d="M6600 3250 l0 -440 140 0 140 0 0 440 0 440 -140 0 -140 0 0 -440z"/>
<path d="M4432 2448 c-18 -18 -15 -36 9 -43 25 -8 42 6 37 31 -4 23 -29 29
-46 12z"/>
<path d="M6244 2446 c-9 -24 4 -48 23 -44 12 2 18 12 18 28 0 29 -32 41 -41
16z"/>
<path d="M8360 2440 c-13 -25 -5 -40 21 -40 14 0 19 7 19 30 0 35 -23 41 -40
10z"/>
<path d="M1300 2433 c-50 -18 -90 -83 -90 -145 0 -110 115 -181 213 -133 49
24 71 61 75 130 4 55 1 64 -23 93 -15 18 -40 39 -56 47 -28 15 -90 19 -119 8z
m123 -74 c39 -43 39 -109 -2 -150 -63 -62 -161 -14 -161 80 0 48 18 81 52 96
43 19 77 11 111 -26z"/>
<path d="M1920 2290 c0 -143 1 -150 20 -150 18 0 20 7 20 70 0 78 19 110 64
110 36 0 50 -25 48 -88 -2 -73 5 -92 30 -92 19 0 20 5 16 91 -3 82 -5 93 -28
111 -24 20 -72 21 -112 4 -16 -7 -18 -2 -18 43 0 44 -3 51 -20 51 -19 0 -20
-7 -20 -150z"/>
<path d="M4140 2290 c0 -149 0 -150 23 -150 19 0 22 5 23 46 1 28 8 52 18 62
16 16 21 13 73 -45 44 -51 61 -63 85 -63 l29 0 -31 38 c-17 20 -48 56 -67 80
l-36 43 69 70 68 69 -31 0 c-26 0 -43 -12 -102 -77 l-71 -77 -1 45 c-1 24 0
59 1 77 1 28 -1 32 -24 32 l-26 0 0 -150z"/>
<path d="M5062 2291 l-60 -151 26 0 c22 0 30 8 44 40 l17 40 63 0 63 0 17 -40
c13 -32 22 -40 42 -40 14 0 26 1 26 3 0 1 -27 67 -59 147 -56 137 -61 145 -89
148 -29 3 -30 1 -90 -147z m111 36 c9 -30 17 -57 17 -60 0 -4 -20 -7 -44 -7
l-45 0 22 60 c12 33 25 60 28 60 3 0 13 -24 22 -53z"/>
<path d="M6910 2290 l0 -150 25 0 c24 0 25 3 25 55 0 52 1 55 24 55 19 0 34
-14 63 -55 30 -44 44 -55 66 -55 15 0 27 2 27 5 0 3 -17 28 -37 56 -32 45 -35
52 -20 61 9 5 24 23 33 39 12 24 13 37 4 64 -17 51 -63 75 -144 75 l-66 0 0
-150z m148 88 c7 -7 12 -24 12 -40 0 -33 -24 -48 -74 -48 l-36 0 0 50 0 50 43
0 c24 0 48 -5 55 -12z"/>
<path d="M2630 2391 c0 -16 -6 -31 -15 -35 -17 -6 -9 -36 10 -36 8 0 12 -23
13 -77 2 -88 12 -103 69 -103 26 0 33 4 33 20 0 13 -7 20 -18 20 -31 0 -42 22
-42 82 0 58 0 58 30 58 23 0 30 4 30 20 0 16 -7 20 -30 20 -27 0 -30 3 -30 30
0 25 -4 30 -25 30 -21 0 -25 -5 -25 -29z"/>
<path d="M3183 2393 c3 -18 0 -31 -11 -40 -14 -10 -15 -15 -4 -32 6 -12 12
-47 12 -79 0 -73 14 -94 65 -96 30 -1 40 3 43 17 2 11 -3 17 -16 17 -32 0 -43
24 -40 82 3 50 5 53 33 58 18 3 31 12 33 23 3 14 -4 17 -32 17 -33 0 -36 2
-36 30 0 26 -4 30 -26 30 -23 0 -26 -3 -21 -27z"/>
<path d="M4549 2413 c-1 -5 0 -18 1 -30 1 -15 -4 -23 -14 -23 -9 0 -16 -8 -16
-20 0 -11 4 -20 9 -20 5 0 11 -34 13 -76 4 -87 19 -107 78 -102 43 4 58 38 16
38 -33 0 -48 29 -44 88 3 45 4 47 36 50 24 3 32 8 32 23 0 17 -6 20 -32 17
-31 -3 -33 -1 -36 30 -2 24 -8 32 -23 32 -10 0 -19 -3 -20 -7z"/>
<path d="M6090 2391 c0 -16 -6 -31 -15 -35 -8 -3 -15 -12 -15 -20 0 -7 7 -16
15 -20 11 -4 15 -22 15 -71 0 -52 4 -69 21 -86 27 -27 84 -23 84 6 0 13 -6 19
-16 17 -28 -4 -40 23 -37 80 3 49 5 53 28 53 18 0 26 6 28 23 3 19 -1 22 -27
22 -28 0 -31 3 -31 30 0 25 -4 30 -25 30 -21 0 -25 -5 -25 -29z"/>
<path d="M2232 2359 c-66 -19 -94 -127 -47 -179 40 -44 125 -49 160 -10 14 16
15 22 5 35 -11 13 -15 12 -37 -5 -33 -25 -58 -25 -83 0 -33 33 -24 40 55 40
83 0 94 8 78 57 -17 50 -75 78 -131 62z m86 -67 c2 -8 -14 -12 -52 -12 -55 0
-68 8 -43 28 30 24 84 15 95 -16z"/>
<path d="M2442 2355 c-71 -30 -47 -106 39 -120 43 -7 52 -16 43 -39 -8 -21
-49 -20 -85 1 -26 16 -31 16 -39 3 -7 -11 -3 -21 11 -35 27 -28 118 -28 148
-1 43 39 14 98 -54 110 -43 8 -61 29 -40 46 11 9 22 9 46 1 37 -13 59 -14 59
-3 -1 35 -78 57 -128 37z"/>
<path d="M3003 2358 c-39 -10 -61 -34 -45 -50 9 -9 15 -9 24 0 16 16 73 15 87
-2 10 -12 4 -15 -31 -21 -53 -9 -94 -29 -102 -50 -25 -66 49 -120 116 -84 14
8 23 8 31 0 6 -6 19 -11 29 -11 16 0 18 10 18 84 0 68 -4 88 -20 108 -22 29
-61 38 -107 26z m77 -124 c0 -34 -20 -54 -54 -54 -55 0 -57 52 -3 63 44 9 57
7 57 -9z"/>
<path d="M3403 2358 c-17 -4 -43 -23 -58 -40 -23 -27 -26 -39 -22 -76 7 -67
42 -97 113 -97 50 0 58 3 85 33 74 83 -8 209 -118 180z m75 -54 c27 -19 30
-78 5 -106 -37 -41 -113 -7 -113 50 0 62 57 92 108 56z"/>
<path d="M5651 2357 c-90 -46 -85 -180 9 -208 44 -13 78 -7 111 20 19 16 21
22 12 32 -10 10 -20 9 -48 -7 -32 -17 -38 -18 -63 -4 -15 9 -28 23 -30 33 -3
15 6 17 77 17 l81 0 -6 28 c-4 15 -10 34 -14 42 -23 45 -88 69 -129 47z m89
-57 c10 -19 8 -20 -45 -20 -30 0 -55 4 -55 8 0 35 83 45 100 12z"/>
<path d="M5930 2363 c-8 -3 -23 -12 -32 -21 -16 -13 -18 -13 -24 2 -3 9 -15
16 -25 16 -18 0 -19 -7 -17 -107 3 -103 4 -108 26 -111 21 -3 22 0 22 71 0 79
15 107 56 107 40 0 49 -16 52 -100 4 -69 7 -80 22 -80 24 0 29 20 26 100 -3
74 -18 105 -60 120 -16 5 -29 10 -30 9 -1 0 -8 -3 -16 -6z"/>
<path d="M7465 2362 c-32 -5 -65 -24 -65 -38 0 -17 21 -23 43 -12 27 14 82 6
82 -12 0 -8 -9 -15 -20 -16 -11 -1 -33 -2 -48 -3 -35 -1 -77 -42 -77 -75 0
-38 46 -69 90 -62 49 9 62 9 88 1 22 -7 22 -6 22 77 0 70 -4 90 -20 110 -19
25 -56 37 -95 30z m62 -127 c8 -23 -26 -55 -58 -55 -32 0 -43 12 -34 39 9 29
82 41 92 16z"/>
<path d="M1550 2250 l0 -110 25 0 c24 0 25 2 25 73 0 80 9 97 52 97 23 0 28 4
28 25 0 27 -25 34 -60 15 -13 -7 -21 -7 -25 0 -3 5 -15 10 -26 10 -18 0 -19
-8 -19 -110z"/>
<path d="M1719 2329 c-32 -34 -39 -87 -18 -133 12 -27 64 -56 98 -56 33 0 71
22 71 41 0 25 -14 31 -36 14 -43 -33 -94 0 -94 59 0 52 23 69 82 62 39 -5 48
-4 48 8 0 22 -32 36 -80 36 -34 0 -48 -6 -71 -31z"/>
<path d="M2780 2250 l0 -110 25 0 c24 0 25 2 25 73 0 78 9 97 47 97 18 0 23 6
23 25 0 30 -24 33 -52 8 -17 -15 -18 -15 -18 0 0 11 -8 17 -25 17 l-25 0 0
-110z"/>
<path d="M3590 2250 l0 -110 25 0 c24 0 25 2 25 73 0 78 9 97 47 97 18 0 23 6
23 25 0 29 -30 35 -51 9 -11 -14 -13 -14 -21 0 -5 9 -18 16 -28 16 -19 0 -20
-8 -20 -110z"/>
<path d="M4430 2250 l0 -110 25 0 25 0 0 110 0 110 -25 0 -25 0 0 -110z"/>
<path d="M5367 2340 c-51 -41 -47 -138 6 -171 39 -23 75 -24 105 -3 33 23 30
-8 -4 -35 -34 -26 -39 -26 -94 3 l-46 24 2 -26 c2 -60 126 -85 181 -38 27 24
28 27 31 145 4 115 3 121 -16 121 -11 0 -22 -6 -25 -12 -4 -10 -7 -10 -18 0
-21 19 -93 15 -122 -8z m117 -36 c22 -22 20 -66 -4 -92 -24 -26 -47 -28 -78
-6 -27 18 -30 69 -5 96 20 22 66 24 87 2z"/>
<path d="M6240 2250 l0 -110 25 0 25 0 0 110 0 110 -25 0 -25 0 0 -110z"/>
<path d="M6372 2344 c-12 -8 -29 -29 -38 -46 -48 -93 78 -202 160 -137 26 21
27 23 11 35 -15 11 -21 11 -39 -1 -28 -20 -42 -19 -66 5 -13 13 -20 33 -20 60
0 51 23 64 91 55 43 -6 48 -5 43 9 -14 37 -100 49 -142 20z"/>
<path d="M7185 2336 c-45 -45 -42 -128 6 -171 30 -28 98 -30 138 -5 31 19 32
23 18 37 -14 14 -17 14 -38 -1 -31 -22 -65 -20 -89 4 -34 34 -24 40 60 40 l80
0 0 34 c0 76 -119 118 -175 62z m113 -28 c22 -22 13 -28 -43 -28 -53 0 -55 1
-45 20 12 23 68 28 88 8z"/>
<path d="M7642 2340 c-25 -24 -29 -62 -8 -79 8 -7 36 -18 63 -24 37 -9 48 -16
48 -32 0 -26 -47 -32 -80 -11 -30 20 -45 20 -45 2 0 -25 50 -56 90 -56 84 0
122 81 58 120 -18 11 -40 20 -49 20 -8 0 -24 6 -34 14 -18 13 -18 14 2 24 14
8 30 8 56 0 45 -14 57 -5 32 22 -25 28 -103 28 -133 0z"/>
<path d="M7866 2333 c-92 -92 16 -239 132 -179 62 32 74 126 23 177 -25 24
-38 29 -79 29 -40 0 -54 -5 -76 -27z m114 -23 c43 -23 30 -115 -18 -127 -43
-11 -76 16 -80 64 -2 33 1 44 20 57 26 18 51 20 78 6z"/>
<path d="M8090 2250 l0 -110 25 0 c24 0 25 2 25 70 0 57 4 74 20 90 22 22 42
25 71 10 16 -9 19 -22 19 -90 0 -79 0 -80 25 -80 25 0 25 1 25 84 0 105 -19
136 -82 136 -25 0 -49 -7 -60 -17 -17 -15 -18 -15 -18 0 0 11 -8 17 -25 17
l-25 0 0 -110z"/>
<path d="M8359 2348 c0 -7 -3 -57 -5 -110 l-5 -98 26 0 25 0 0 110 c0 103 -1
110 -20 110 -11 0 -20 -6 -21 -12z"/>
<path d="M8440 2250 c0 -103 1 -110 20 -110 18 0 20 7 20 70 0 78 19 110 64
110 37 0 48 -23 49 -105 2 -70 3 -75 25 -75 21 0 22 3 22 88 0 80 -2 91 -23
110 -28 26 -82 29 -115 6 -20 -14 -22 -14 -22 0 0 9 -9 16 -20 16 -19 0 -20
-7 -20 -110z"/>
<path d="M8729 2331 c-23 -24 -29 -38 -29 -75 0 -65 32 -100 91 -100 24 0 53
4 64 9 19 9 19 8 4 -15 -21 -31 -75 -38 -121 -14 -18 9 -30 13 -26 9 4 -5 3
-14 -3 -21 -8 -10 -3 -18 23 -34 46 -30 119 -23 156 14 25 25 27 33 31 141 3
108 2 115 -16 115 -10 0 -24 -5 -31 -12 -9 -9 -15 -9 -24 0 -7 7 -29 12 -51
12 -29 0 -46 -7 -68 -29z m125 -30 c25 -27 17 -70 -17 -95 -26 -19 -30 -19
-55 -5 -33 18 -43 77 -17 103 22 22 68 20 89 -3z"/>
<path d="M3887 2304 c-13 -13 -7 -51 9 -65 23 -19 49 1 49 37 0 24 -5 30 -25
32 -14 2 -29 0 -33 -4z"/>
<path d="M4810 2295 c-10 -12 -9 -20 4 -40 9 -14 19 -25 22 -25 17 0 44 23 44
38 0 38 -46 56 -70 27z"/>
<path d="M6697 2304 c-12 -12 -8 -51 7 -63 24 -20 58 4 54 37 -2 20 -9 28 -28
30 -14 2 -29 0 -33 -4z"/>
</g>
</svg>
